<mxfile host="app.diagrams.net" agent="Mozilla/5.0 (Windows NT 10.0; Win64; x64) AppleWebKit/537.36 (KHTML, like Gecko) Chrome/128.0.0.0 Safari/537.36" version="24.7.8">
  <diagram name="Page-1" id="16e2658f-23c8-b752-8be9-c03fbebb8bbe">
    <mxGraphModel grid="1" page="1" gridSize="10" guides="1" tooltips="1" connect="1" arrows="1" fold="1" pageScale="1" pageWidth="1100" pageHeight="850" background="none" math="0" shadow="0">
      <root>
        <mxCell id="0" />
        <mxCell id="1" parent="0" />
        <mxCell id="xS4EURj-bL_TIpOcITpC-20" style="edgeStyle=orthogonalEdgeStyle;rounded=0;orthogonalLoop=1;jettySize=auto;html=1;exitX=1;exitY=0.36;exitDx=0;exitDy=0;exitPerimeter=0;entryX=0;entryY=0.5;entryDx=0;entryDy=0;endArrow=none;endFill=0;" edge="1" parent="1" source="xS4EURj-bL_TIpOcITpC-1" target="xS4EURj-bL_TIpOcITpC-11">
          <mxGeometry relative="1" as="geometry">
            <Array as="points">
              <mxPoint x="350" y="232" />
              <mxPoint x="350" y="395" />
            </Array>
          </mxGeometry>
        </mxCell>
        <mxCell id="xS4EURj-bL_TIpOcITpC-1" value="" style="verticalLabelPosition=bottom;shadow=0;dashed=0;align=center;html=1;verticalAlign=top;shape=mxgraph.electrical.logic_gates.d_type_flip-flop_with_clear_2;" vertex="1" parent="1">
          <mxGeometry x="210" y="200" width="100" height="90" as="geometry" />
        </mxCell>
        <mxCell id="xS4EURj-bL_TIpOcITpC-19" style="edgeStyle=orthogonalEdgeStyle;rounded=0;orthogonalLoop=1;jettySize=auto;html=1;exitX=1;exitY=0.36;exitDx=0;exitDy=0;exitPerimeter=0;entryX=0;entryY=0.5;entryDx=0;entryDy=0;endArrow=none;endFill=0;" edge="1" parent="1" source="xS4EURj-bL_TIpOcITpC-2" target="xS4EURj-bL_TIpOcITpC-10">
          <mxGeometry relative="1" as="geometry">
            <Array as="points">
              <mxPoint x="500" y="232" />
              <mxPoint x="500" y="365" />
            </Array>
          </mxGeometry>
        </mxCell>
        <mxCell id="xS4EURj-bL_TIpOcITpC-2" value="" style="verticalLabelPosition=bottom;shadow=0;dashed=0;align=center;html=1;verticalAlign=top;shape=mxgraph.electrical.logic_gates.d_type_flip-flop_with_clear_2;" vertex="1" parent="1">
          <mxGeometry x="370" y="200" width="100" height="90" as="geometry" />
        </mxCell>
        <mxCell id="xS4EURj-bL_TIpOcITpC-18" style="edgeStyle=orthogonalEdgeStyle;rounded=0;orthogonalLoop=1;jettySize=auto;html=1;exitX=1;exitY=0.36;exitDx=0;exitDy=0;exitPerimeter=0;entryX=0;entryY=0.5;entryDx=0;entryDy=0;endArrow=none;endFill=0;" edge="1" parent="1" source="xS4EURj-bL_TIpOcITpC-3" target="xS4EURj-bL_TIpOcITpC-8">
          <mxGeometry relative="1" as="geometry" />
        </mxCell>
        <mxCell id="xS4EURj-bL_TIpOcITpC-3" value="" style="verticalLabelPosition=bottom;shadow=0;dashed=0;align=center;html=1;verticalAlign=top;shape=mxgraph.electrical.logic_gates.d_type_flip-flop_with_clear_2;" vertex="1" parent="1">
          <mxGeometry x="530" y="200" width="100" height="90" as="geometry" />
        </mxCell>
        <mxCell id="xS4EURj-bL_TIpOcITpC-26" style="edgeStyle=orthogonalEdgeStyle;rounded=0;orthogonalLoop=1;jettySize=auto;html=1;exitX=1;exitY=0.36;exitDx=0;exitDy=0;exitPerimeter=0;entryX=0;entryY=0.5;entryDx=0;entryDy=0;endArrow=none;endFill=0;" edge="1" parent="1" source="xS4EURj-bL_TIpOcITpC-4" target="xS4EURj-bL_TIpOcITpC-21">
          <mxGeometry relative="1" as="geometry">
            <Array as="points">
              <mxPoint x="420" y="582" />
              <mxPoint x="420" y="455" />
            </Array>
          </mxGeometry>
        </mxCell>
        <mxCell id="xS4EURj-bL_TIpOcITpC-4" value="" style="verticalLabelPosition=bottom;shadow=0;dashed=0;align=center;html=1;verticalAlign=top;shape=mxgraph.electrical.logic_gates.d_type_flip-flop_with_clear_2;" vertex="1" parent="1">
          <mxGeometry x="280" y="550" width="100" height="90" as="geometry" />
        </mxCell>
        <mxCell id="xS4EURj-bL_TIpOcITpC-23" style="edgeStyle=orthogonalEdgeStyle;rounded=0;orthogonalLoop=1;jettySize=auto;html=1;exitX=1;exitY=0.36;exitDx=0;exitDy=0;exitPerimeter=0;entryX=0;entryY=0.5;entryDx=0;entryDy=0;endArrow=none;endFill=0;" edge="1" parent="1" source="xS4EURj-bL_TIpOcITpC-5" target="xS4EURj-bL_TIpOcITpC-22">
          <mxGeometry relative="1" as="geometry" />
        </mxCell>
        <mxCell id="xS4EURj-bL_TIpOcITpC-5" value="" style="verticalLabelPosition=bottom;shadow=0;dashed=0;align=center;html=1;verticalAlign=top;shape=mxgraph.electrical.logic_gates.d_type_flip-flop_with_clear_2;" vertex="1" parent="1">
          <mxGeometry x="440" y="550" width="100" height="90" as="geometry" />
        </mxCell>
        <mxCell id="xS4EURj-bL_TIpOcITpC-34" style="edgeStyle=orthogonalEdgeStyle;rounded=0;orthogonalLoop=1;jettySize=auto;html=1;exitX=1;exitY=0.36;exitDx=0;exitDy=0;exitPerimeter=0;entryX=0;entryY=0.5;entryDx=0;entryDy=0;endArrow=none;endFill=0;" edge="1" parent="1" source="xS4EURj-bL_TIpOcITpC-6" target="xS4EURj-bL_TIpOcITpC-30">
          <mxGeometry relative="1" as="geometry" />
        </mxCell>
        <mxCell id="xS4EURj-bL_TIpOcITpC-6" value="" style="verticalLabelPosition=bottom;shadow=0;dashed=0;align=center;html=1;verticalAlign=top;shape=mxgraph.electrical.logic_gates.d_type_flip-flop_with_clear_2;" vertex="1" parent="1">
          <mxGeometry x="820" y="380" width="100" height="90" as="geometry" />
        </mxCell>
        <mxCell id="xS4EURj-bL_TIpOcITpC-7" value="" style="rounded=0;whiteSpace=wrap;html=1;" vertex="1" parent="1">
          <mxGeometry x="690" y="310" width="110" height="200" as="geometry" />
        </mxCell>
        <mxCell id="xS4EURj-bL_TIpOcITpC-8" value="&lt;font style=&quot;font-size: 18px;&quot;&gt;+&lt;/font&gt;" style="text;html=1;align=center;verticalAlign=middle;whiteSpace=wrap;rounded=0;" vertex="1" parent="1">
          <mxGeometry x="690" y="320" width="30" height="30" as="geometry" />
        </mxCell>
        <mxCell id="xS4EURj-bL_TIpOcITpC-10" value="&lt;font style=&quot;font-size: 18px;&quot;&gt;+&lt;/font&gt;" style="text;html=1;align=center;verticalAlign=middle;whiteSpace=wrap;rounded=0;" vertex="1" parent="1">
          <mxGeometry x="690" y="350" width="30" height="30" as="geometry" />
        </mxCell>
        <mxCell id="xS4EURj-bL_TIpOcITpC-11" value="&lt;font style=&quot;font-size: 18px;&quot;&gt;-&lt;/font&gt;" style="text;html=1;align=center;verticalAlign=middle;whiteSpace=wrap;rounded=0;" vertex="1" parent="1">
          <mxGeometry x="690" y="380" width="30" height="30" as="geometry" />
        </mxCell>
        <mxCell id="xS4EURj-bL_TIpOcITpC-12" value="&lt;font style=&quot;font-size: 18px;&quot;&gt;+&lt;/font&gt;" style="text;html=1;align=center;verticalAlign=middle;whiteSpace=wrap;rounded=0;" vertex="1" parent="1">
          <mxGeometry x="690" y="410" width="30" height="30" as="geometry" />
        </mxCell>
        <mxCell id="xS4EURj-bL_TIpOcITpC-13" value="&lt;font style=&quot;font-size: 18px;&quot;&gt;+&lt;/font&gt;" style="text;html=1;align=center;verticalAlign=middle;whiteSpace=wrap;rounded=0;" vertex="1" parent="1">
          <mxGeometry x="690" y="440" width="30" height="30" as="geometry" />
        </mxCell>
        <mxCell id="xS4EURj-bL_TIpOcITpC-14" value="&lt;font style=&quot;font-size: 18px;&quot;&gt;+&lt;/font&gt;" style="text;html=1;align=center;verticalAlign=middle;whiteSpace=wrap;rounded=0;" vertex="1" parent="1">
          <mxGeometry x="690" y="470" width="30" height="30" as="geometry" />
        </mxCell>
        <mxCell id="xS4EURj-bL_TIpOcITpC-16" style="edgeStyle=orthogonalEdgeStyle;rounded=0;orthogonalLoop=1;jettySize=auto;html=1;exitX=1;exitY=0.36;exitDx=0;exitDy=0;exitPerimeter=0;entryX=0;entryY=0.36;entryDx=0;entryDy=0;entryPerimeter=0;endArrow=none;endFill=0;" edge="1" parent="1" source="xS4EURj-bL_TIpOcITpC-1" target="xS4EURj-bL_TIpOcITpC-2">
          <mxGeometry relative="1" as="geometry" />
        </mxCell>
        <mxCell id="xS4EURj-bL_TIpOcITpC-17" style="edgeStyle=orthogonalEdgeStyle;rounded=0;orthogonalLoop=1;jettySize=auto;html=1;exitX=1;exitY=0.36;exitDx=0;exitDy=0;exitPerimeter=0;entryX=0;entryY=0.36;entryDx=0;entryDy=0;entryPerimeter=0;endArrow=none;endFill=0;" edge="1" parent="1" source="xS4EURj-bL_TIpOcITpC-2" target="xS4EURj-bL_TIpOcITpC-3">
          <mxGeometry relative="1" as="geometry" />
        </mxCell>
        <mxCell id="xS4EURj-bL_TIpOcITpC-24" style="edgeStyle=orthogonalEdgeStyle;rounded=0;orthogonalLoop=1;jettySize=auto;html=1;exitX=1;exitY=0.5;exitDx=0;exitDy=0;entryX=0;entryY=0.5;entryDx=0;entryDy=0;endArrow=none;endFill=0;" edge="1" parent="1" source="xS4EURj-bL_TIpOcITpC-21" target="xS4EURj-bL_TIpOcITpC-13">
          <mxGeometry relative="1" as="geometry" />
        </mxCell>
        <mxCell id="xS4EURj-bL_TIpOcITpC-21" value="0.5" style="rounded=0;whiteSpace=wrap;html=1;" vertex="1" parent="1">
          <mxGeometry x="580" y="435" width="40" height="40" as="geometry" />
        </mxCell>
        <mxCell id="xS4EURj-bL_TIpOcITpC-27" style="edgeStyle=orthogonalEdgeStyle;rounded=0;orthogonalLoop=1;jettySize=auto;html=1;exitX=1;exitY=0.5;exitDx=0;exitDy=0;entryX=0;entryY=0.5;entryDx=0;entryDy=0;endArrow=none;endFill=0;" edge="1" parent="1" source="xS4EURj-bL_TIpOcITpC-22" target="xS4EURj-bL_TIpOcITpC-14">
          <mxGeometry relative="1" as="geometry" />
        </mxCell>
        <mxCell id="xS4EURj-bL_TIpOcITpC-22" value="0.2&lt;span style=&quot;background-color: initial;&quot;&gt;5&lt;/span&gt;" style="rounded=0;whiteSpace=wrap;html=1;" vertex="1" parent="1">
          <mxGeometry x="580" y="497.5" width="40" height="40" as="geometry" />
        </mxCell>
        <mxCell id="xS4EURj-bL_TIpOcITpC-25" style="edgeStyle=orthogonalEdgeStyle;rounded=0;orthogonalLoop=1;jettySize=auto;html=1;exitX=1;exitY=0.36;exitDx=0;exitDy=0;exitPerimeter=0;entryX=0;entryY=0.36;entryDx=0;entryDy=0;entryPerimeter=0;endArrow=none;endFill=0;" edge="1" parent="1" source="xS4EURj-bL_TIpOcITpC-4" target="xS4EURj-bL_TIpOcITpC-5">
          <mxGeometry relative="1" as="geometry" />
        </mxCell>
        <mxCell id="xS4EURj-bL_TIpOcITpC-28" value="X" style="rounded=0;whiteSpace=wrap;html=1;" vertex="1" parent="1">
          <mxGeometry x="110" y="220" width="40" height="30" as="geometry" />
        </mxCell>
        <mxCell id="xS4EURj-bL_TIpOcITpC-29" style="edgeStyle=orthogonalEdgeStyle;rounded=0;orthogonalLoop=1;jettySize=auto;html=1;exitX=1;exitY=0.5;exitDx=0;exitDy=0;entryX=0;entryY=0.36;entryDx=0;entryDy=0;entryPerimeter=0;endArrow=none;endFill=0;" edge="1" parent="1" source="xS4EURj-bL_TIpOcITpC-28" target="xS4EURj-bL_TIpOcITpC-1">
          <mxGeometry relative="1" as="geometry">
            <Array as="points">
              <mxPoint x="180" y="235" />
              <mxPoint x="180" y="232" />
            </Array>
          </mxGeometry>
        </mxCell>
        <mxCell id="xS4EURj-bL_TIpOcITpC-30" value="Y" style="rounded=0;whiteSpace=wrap;html=1;" vertex="1" parent="1">
          <mxGeometry x="950" y="395" width="40" height="30" as="geometry" />
        </mxCell>
        <mxCell id="xS4EURj-bL_TIpOcITpC-32" style="edgeStyle=orthogonalEdgeStyle;rounded=0;orthogonalLoop=1;jettySize=auto;html=1;exitX=1;exitY=0.5;exitDx=0;exitDy=0;entryX=0;entryY=0.36;entryDx=0;entryDy=0;entryPerimeter=0;endArrow=none;endFill=0;" edge="1" parent="1" source="xS4EURj-bL_TIpOcITpC-7" target="xS4EURj-bL_TIpOcITpC-6">
          <mxGeometry relative="1" as="geometry" />
        </mxCell>
        <mxCell id="xS4EURj-bL_TIpOcITpC-35" style="edgeStyle=orthogonalEdgeStyle;rounded=0;orthogonalLoop=1;jettySize=auto;html=1;exitX=1;exitY=0.36;exitDx=0;exitDy=0;exitPerimeter=0;entryX=0;entryY=0.36;entryDx=0;entryDy=0;entryPerimeter=0;endArrow=none;endFill=0;" edge="1" parent="1" source="xS4EURj-bL_TIpOcITpC-6" target="xS4EURj-bL_TIpOcITpC-4">
          <mxGeometry relative="1" as="geometry">
            <Array as="points">
              <mxPoint x="940" y="412" />
              <mxPoint x="940" y="700" />
              <mxPoint x="260" y="700" />
              <mxPoint x="260" y="582" />
            </Array>
          </mxGeometry>
        </mxCell>
        <mxCell id="xS4EURj-bL_TIpOcITpC-36" value="&lt;font style=&quot;font-size: 15px;&quot;&gt;El reloj y el reset no fueron cableados para mantener la legibilidad&lt;/font&gt;" style="text;html=1;align=center;verticalAlign=middle;whiteSpace=wrap;rounded=0;" vertex="1" parent="1">
          <mxGeometry x="240" y="150" width="460" height="30" as="geometry" />
        </mxCell>
      </root>
    </mxGraphModel>
  </diagram>
</mxfile>
